PathFileType	4	(X/Y/Z)	C:/Users/opensim2020/Desktop/walking_exp_matlab/subject06_cal10_run.trc	
DataRate	CameraRate	NumFrames	NumMarkers	Units	OrigDataRate	OrigDataStartFrame	OrigNumFrames	
100.00	100.00	9	49	mm	100.00	257	118	
Frame#	Time	LKNE			RTIB			RFRM			RWRA			LTHI			RKNE			RELB			RFHD			LWRA			RUPA			STRN			RASI			CLAV			RSHO			LASI			RTHI			RBHD			LBHD			C7			RWRB			RFIN			RTOE			LSHO			RBAK			LTIB			RANK			LFIN			LANK			RHEE			T10			LHEE			LTOE			LFHD			LPSI			RPSI			LUPA			LELB			LFRM			LWRB			*39			*40			*41			*42			*43			*44			*45			*46			*47			*48			
		X1	Y1	Z1	X2	Y2	Z2	X3	Y3	Z3	X4	Y4	Z4	X5	Y5	Z5	X6	Y6	Z6	X7	Y7	Z7	X8	Y8	Z8	X9	Y9	Z9	X10	Y10	Z10	X11	Y11	Z11	X12	Y12	Z12	X13	Y13	Z13	X14	Y14	Z14	X15	Y15	Z15	X16	Y16	Z16	X17	Y17	Z17	X18	Y18	Z18	X19	Y19	Z19	X20	Y20	Z20	X21	Y21	Z21	X22	Y22	Z22	X23	Y23	Z23	X24	Y24	Z24	X25	Y25	Z25	X26	Y26	Z26	X27	Y27	Z27	X28	Y28	Z28	X29	Y29	Z29	X30	Y30	Z30	X31	Y31	Z31	X32	Y32	Z32	X33	Y33	Z33	X34	Y34	Z34	X35	Y35	Z35	X36	Y36	Z36	X37	Y37	Z37	X38	Y38	Z38	X39	Y39	Z39	X40	Y40	Z40	X41	Y41	Z41	X42	Y42	Z42	X43	Y43	Z43	X44	Y44	Z44	X45	Y45	Z45	X46	Y46	Z46	X47	Y47	Z47	X48	Y48	Z48	X49	Y49	Z49	

89	0.880	172.85532	1139.59302	521.40460	411.57928	1479.08240	358.75308	524.79907	1116.54285	1201.29260	470.28970	1248.05981	1189.99902	142.24486	1203.13074	674.66779	431.19171	1464.35974	622.97443	529.42865	1039.59241	1271.18896	347.62183	1369.25610	1686.81970	152.53821	1405.43042	1276.96924	493.81433	1099.20947	1359.33276	294.80960	1378.46301	1235.01599	405.58994	1323.51514	1009.83136	285.65408	1340.17212	1411.79688	418.35016	1251.20850	1458.24695	196.48460	1353.14697	978.16473	461.97910	1392.75269	724.12640	334.78317	1235.53894	1644.49915	205.42183	1245.67126	1645.25952	255.40393	1235.91809	1488.73669	503.96808	1232.18896	1134.94629	500.67184	1315.14673	1145.34216	344.76349	1635.96704	104.34968	122.66361	1314.65515	1456.63501	299.78574	1147.17859	1334.27551	163.62907	935.48248	361.33948	352.46320	1491.24487	178.51372	215.94206	1474.57532	1277.63354	190.25592	802.27313	252.87555	303.91898	1455.56836	170.10748	254.57419	1190.28198	1170.54382	223.90536	771.00177	289.78421	240.13457	803.67920	105.74396	215.69130	1381.08728	1692.90442	191.31448	1208.24646	1029.04468	356.10519	1184.65234	1039.88525	12.58403	1310.26135	1290.76062	-31.09135	1297.96301	1190.68042	63.50016	1385.75159	1187.02112	167.24654	1433.36670	1213.88879							264.84793	1278.71179	1739.02405																					 
90	0.890	172.40520	1184.61658	521.37274	410.25662	1523.54285	352.72537	523.79321	1154.19409	1201.21252	471.00217	1286.58545	1191.17725	142.29257	1247.29187	675.23749	429.70865	1497.85303	615.47009	527.91040	1076.53027	1270.37378	349.94644	1407.69189	1687.97229	154.16563	1444.16199	1278.68201	493.17065	1136.14307	1358.61267	295.83701	1418.08362	1236.49158	407.13495	1364.16113	1008.56641	287.27393	1378.63599	1413.31287	419.96255	1288.60986	1458.66992	196.51463	1394.19885	980.10052	462.35229	1428.69946	716.91351	336.87302	1274.03455	1645.65625	207.61771	1284.22607	1646.94434	256.85501	1274.72302	1490.28430	503.80402	1270.64075	1135.59705	501.67133	1353.62659	1146.40210	342.61935	1694.59656	103.86478	123.58506	1353.45764	1457.80042	300.26202	1186.15515	1333.27881	163.01221	975.50549	368.00009	353.17944	1546.99915	174.75363	217.85991	1513.02283	1280.17834	189.15508	838.22278	263.60199	304.63568	1511.62732	165.60626	256.05405	1230.45618	1170.43188	224.52376	807.72198	299.79523	234.49805	841.24554	115.53699	218.04286	1419.60950	1694.53784	193.33192	1247.60645	1029.62793	357.91782	1224.68311	1038.54639	13.74082	1350.26221	1291.12720	-30.36078	1338.38000	1191.38696	65.28360	1425.47522	1188.44568	169.29289	1472.46082	1215.83936							267.40033	1317.24365	1740.52490																					 
91	0.900	171.21518	1230.41125	520.53033	408.72476	1566.19360	346.64679	523.05383	1192.94897	1199.50330	472.06671	1326.21436	1190.82690	142.12628	1291.69299	675.23621	428.17734	1531.40918	607.62427	526.87305	1114.49451	1268.12048	351.90247	1445.69067	1688.18286	155.70041	1483.33093	1278.43506	492.71683	1173.92627	1356.80396	296.65027	1457.47559	1237.09778	407.97815	1405.38574	1006.90424	288.75522	1417.15698	1413.84534	421.64032	1326.36194	1458.31262	196.18178	1435.11584	981.48401	463.45313	1463.77087	709.48969	338.63095	1312.03699	1645.78027	209.72401	1322.67871	1647.54407	258.46521	1313.67871	1491.06934	503.64508	1309.99292	1134.60291	502.83002	1393.11389	1145.81860	339.23853	1749.51318	103.61407	124.48158	1392.54614	1457.87744	301.47644	1224.92273	1331.73242	162.25607	1016.89673	373.90869	353.51050	1599.13049	170.83345	219.65927	1552.01270	1280.28894	187.99078	876.45703	273.10904	305.97162	1563.88611	160.27597	257.05911	1272.97461	1168.88660	225.30109	846.91455	308.60046	228.21010	880.31317	124.15364	220.51619	1458.05444	1695.20703	195.21443	1286.73010	1029.19214	360.18423	1265.55701	1037.03162	14.59666	1390.07910	1290.44360	-29.54778	1378.09546	1190.93286	66.72575	1465.01965	1188.30798	171.07849	1511.71936	1215.66199							269.79324	1355.54150	1741.01331																					 
92	0.910	169.40561	1277.24561	518.58972	408.25009	1607.79993	341.18735	522.65314	1232.63745	1195.96899	473.18216	1366.53613	1188.83569	141.50082	1336.02930	674.35681	426.74301	1565.52954	599.91235	526.20276	1153.80688	1264.22266	354.51035	1483.92310	1687.20740	157.37354	1522.82129	1276.28955	492.70319	1212.46240	1353.94751	297.58337	1496.78271	1236.84509	407.88187	1447.04773	1005.20898	290.15894	1455.61646	1413.29517	423.30569	1364.51221	1456.92065	195.66838	1475.67871	982.13690	463.52493	1497.70996	701.34180	340.75375	1350.13757	1644.95239	211.81480	1360.93323	1647.10474	259.85724	1352.39490	1490.62952	503.94592	1350.65613	1132.12280	503.89539	1433.54932	1143.60352	335.46835	1799.29590	102.47902	125.41830	1431.69531	1456.89587	303.24939	1263.52979	1329.70105	161.80371	1059.46521	379.24466	352.87137	1647.23901	166.21794	221.39804	1591.55579	1277.90930	186.83629	916.63556	281.43057	307.12640	1611.84045	154.82022	258.93317	1308.01477	1167.13416	225.82417	887.44073	315.85226	221.47046	922.17059	131.70728	222.94414	1496.34302	1694.78186	196.69110	1326.03052	1027.88391	361.76971	1306.41541	1035.17029	15.40911	1429.48901	1288.91028	-28.60915	1417.28467	1189.56604	68.04173	1503.93762	1186.78015	172.46303	1551.16541	1213.54163							272.21356	1393.70508	1740.39722																					 
93	0.920	167.75497	1325.11377	515.12476	408.21048	1648.18787	335.98016	522.83881	1273.54602	1190.96350	474.46567	1407.81812	1185.43835	140.65807	1380.25012	672.29822	425.95432	1600.35864	592.43579	525.99988	1194.12854	1258.79285	356.86850	1521.84045	1685.28479	159.05594	1562.69165	1272.49487	493.20117	1251.82471	1349.71777	299.20859	1536.33496	1235.79260	407.09683	1489.15002	1003.59033	291.47433	1494.10571	1411.62256	425.03601	1403.09058	1454.44189	195.18340	1515.93616	981.97137	463.46365	1532.08289	693.80914	343.17828	1388.45801	1643.12939	213.89600	1399.09399	1645.55579	261.55035	1390.77136	1488.65845	504.01089	1391.96338	1127.96887	504.88678	1475.07678	1140.00903	331.83701	1843.91284	99.59531	126.38250	1470.81006	1455.01074	305.34006	1302.25708	1327.11133	161.34238	1103.26941	383.61029	352.35294	1690.69861	160.99368	222.98080	1631.65027	1273.11646	185.88625	958.65143	288.31778	307.33820	1655.10547	148.82181	260.41553	1348.15759	1163.99060	226.23897	929.25262	321.44339	214.46783	966.73022	138.26358	225.31030	1534.45544	1693.29224	197.46904	1365.72363	1025.67224	362.99786	1347.87598	1033.04785	16.56942	1468.40723	1286.53528	-27.31741	1455.75391	1187.33887	69.18105	1542.73328	1183.68323	173.67035	1590.63940	1209.44580							274.48471	1431.69128	1738.72229																					 
94	0.930	166.06055	1373.90027	510.58453	408.78409	1687.05591	329.85986	523.44916	1315.40820	1184.43738	475.78992	1449.97107	1180.75610	139.78287	1424.77502	669.10529	426.44989	1635.56055	584.67310	525.85419	1235.22559	1251.54858	358.74484	1559.21094	1682.33801	160.80821	1602.68945	1267.05200	494.35184	1291.79736	1343.94177	298.84030	1574.98730	1233.17285	405.70554	1531.00903	1001.57690	292.58334	1532.63660	1408.89868	426.84543	1442.09985	1450.86133	194.55139	1555.90210	980.73553	463.51761	1567.48889	686.97369	344.81631	1425.86279	1639.98865	215.95883	1437.04504	1642.99146	263.24612	1428.88940	1485.62073	504.60449	1434.46375	1122.70813	505.95743	1517.50818	1135.38818	328.42874	1882.93872	93.19832	127.45154	1509.81812	1452.20361	307.56268	1340.98169	1323.86597	160.68370	1149.30786	386.03644	352.14154	1729.39551	154.58051	224.33842	1672.09363	1266.09875	185.10091	1002.44312	293.81293	307.74863	1693.46753	142.41730	261.49890	1386.83911	1160.27271	226.71996	972.76343	325.30643	207.09204	1013.63147	143.67195	227.67610	1572.36255	1690.79382	198.09175	1405.36011	1022.49213	363.67499	1389.30530	1030.53247	18.01289	1506.69482	1283.54761	-25.94669	1493.55322	1184.33533	70.21740	1581.09570	1179.14294	174.57059	1629.95264	1203.59558							276.88446	1469.47559	1735.96814																					 
95	0.940	164.51291	1423.43372	505.15488	408.99942	1723.66858	322.49524	524.56146	1358.20410	1176.64624	477.24353	1492.87256	1174.89270	138.85635	1469.67480	664.84406	427.55331	1671.03357	576.48157	527.26471	1277.29468	1243.07227	361.09335	1596.91870	1678.37769	162.43394	1643.48853	1259.96509	496.28668	1332.38672	1336.64124	299.13303	1613.90796	1229.70544	404.55960	1572.64697	999.17645	293.67838	1571.02161	1405.11353	428.73859	1481.34241	1446.15369	193.76924	1595.96790	978.35468	463.97256	1604.67175	681.55743	346.75244	1463.52258	1635.87537	217.87074	1474.81323	1639.28406	264.91718	1467.03430	1481.71973	505.59445	1478.04541	1116.47375	506.63199	1560.92554	1129.84570	324.99066	1916.34277	83.16776	128.72786	1548.63721	1448.42932	309.87299	1379.59985	1319.87744	159.81400	1197.23621	386.33948	351.88712	1763.74170	146.61261	225.32489	1712.88757	1256.94226	184.14960	1048.17212	297.68192	308.44370	1727.05713	135.30064	262.40723	1425.45667	1156.42676	227.56705	1018.17914	327.57828	199.12129	1062.50024	148.02802	229.94151	1610.02905	1687.38660	198.37338	1445.37476	1018.42957	363.89005	1430.26965	1027.38989	19.35012	1544.50903	1279.94373	-23.81870	1530.48315	1180.41382	71.13873	1619.07031	1173.21729	175.08708	1669.45032	1195.79749							279.45953	1507.10645	1732.04663																					 
96	0.950	163.05060	1473.82202	498.80487	408.82663	1756.66321	313.68610	526.02307	1401.81311	1167.65894	477.78448	1536.17627	1167.64856	138.52756	1515.16089	659.49591	427.90182	1707.34241	568.77783	529.27740	1320.23315	1233.10315	363.17230	1634.24524	1673.60486	163.62762	1684.30481	1251.15393	498.95651	1373.53577	1327.79321	299.75613	1653.45923	1225.27307	403.53336	1613.66553	996.07056	294.64319	1609.44153	1400.38647	430.72705	1520.70056	1440.35522	192.91444	1636.04431	974.79315	462.81992	1643.38440	676.30878	348.50198	1500.86975	1630.81641	219.88649	1512.27161	1634.48035	266.80695	1504.97607	1476.74902	506.42612	1522.35547	1109.10986	507.10675	1605.17920	1123.44263	322.18491	1944.45569	70.74920	130.12538	1587.14026	1443.72388	312.00702	1418.34973	1315.01294	158.69962	1246.87195	384.61975	351.87976	1793.21973	136.76804	225.86446	1753.80029	1245.71680	183.49214	1095.37158	300.32144	308.64221	1756.34021	126.18899	263.18930	1465.02771	1152.00879	228.66856	1065.16125	328.28372	190.43076	1113.29077	151.68900	232.03755	1647.34326	1683.02563	198.26062	1485.32178	1013.47595	363.61252	1470.66821	1023.01886	20.80781	1581.75195	1275.49963	-21.75751	1566.81580	1175.96021	71.88493	1656.55713	1165.91223	175.42723	1708.53589	1186.17090							281.31927	1544.10181	1727.22351																					 
97	0.960	162.02295	1525.46704	491.26175	408.71112	1785.95215	303.46381	528.16595	1446.69727	1157.80554	478.90506	1580.62463	1159.58984	137.98134	1561.41907	653.15454	427.18600	1745.06384	562.71729	532.21277	1364.01758	1221.73987	365.05121	1671.42847	1668.00293	166.79404	1722.08130	1239.95825	502.29559	1415.20972	1317.45593	299.83200	1692.67578	1219.79089	402.79126	1654.14465	992.13245	295.70975	1647.85071	1394.62964	432.68747	1560.17737	1433.47156	191.98093	1676.19287	970.20349	461.44318	1683.68274	671.46790	350.66763	1538.38232	1624.53955	221.92613	1549.40955	1628.61609	268.89960	1542.94348	1470.88049	507.73380	1567.78650	1100.90210	506.83945	1650.06958	1115.88135	320.77914	1967.77063	56.71103	131.76003	1624.98926	1438.03784	314.34247	1457.33984	1309.32910	157.75748	1297.92859	381.07095	351.91815	1817.73792	125.48617	225.72473	1794.78979	1232.64465	182.92310	1144.55994	301.29736	308.85483	1780.66162	115.70924	263.63614	1503.70752	1146.91968	229.91837	1114.31921	327.35901	181.71373	1165.95813	154.57330	233.96402	1684.29041	1677.78186	198.16451	1525.36865	1007.56305	363.13596	1510.75476	1017.49225	22.55268	1618.31885	1269.96899	-19.34576	1602.31555	1170.44482	72.51855	1693.38062	1157.40271	175.31050	1747.31665	1175.07605							283.65030	1580.97815	1721.28101																					 
